<svg width="100" height="100" viewBox="0 0 100 100" fill="none" xmlns="http://www.w3.org/2000/svg">
<path d="M50.0112 24.3613C35.8226 24.3613 24.3781 35.8083 24.3781 50C24.3781 64.1917 35.8226 75.6387 50.0112 75.6387C64.1997 75.6387 75.6442 64.1917 75.6442 50C75.6442 35.8083 64.1997 24.3613 50.0112 24.3613ZM50.0112 66.6685C40.8422 66.6685 33.3463 59.1934 33.3463 50C33.3463 40.8067 40.8199 33.3315 50.0112 33.3315C59.2025 33.3315 66.676 40.8067 66.676 50C66.676 59.1934 59.1801 66.6685 50.0112 66.6685ZM82.6715 23.3125C82.6715 26.6373 79.9944 29.2927 76.6927 29.2927C73.3687 29.2927 70.7139 26.615 70.7139 23.3125C70.7139 20.01 73.391 17.3324 76.6927 17.3324C79.9944 17.3324 82.6715 20.01 82.6715 23.3125ZM99.6486 29.3819C99.2694 21.3712 97.44 14.2754 91.5728 8.4291C85.7278 2.58284 78.6336 0.753096 70.6247 0.351445C62.3703 -0.117148 37.6297 -0.117148 29.3754 0.351445C21.3887 0.730782 14.2945 2.56053 8.42722 8.40678C2.55996 14.253 0.752928 21.3489 0.351366 29.3596C-0.117122 37.6158 -0.117122 62.3619 0.351366 70.6181C0.730619 78.6288 2.55996 85.7246 8.42722 91.5709C14.2945 97.4172 21.3664 99.2469 29.3754 99.6486C37.6297 100.117 62.3703 100.117 70.6247 99.6486C78.6336 99.2692 85.7278 97.4395 91.5728 91.5709C97.4177 85.7246 99.2471 78.6288 99.6486 70.6181C100.117 62.3619 100.117 37.6381 99.6486 29.3819ZM88.9849 79.4767C87.2448 83.8503 83.8762 87.2197 79.4813 88.9825C72.9002 91.5932 57.2839 90.9907 50.0112 90.9907C42.7384 90.9907 27.0998 91.5709 20.541 88.9825C16.1684 87.242 12.7998 83.8726 11.0374 79.4767C8.42722 72.8941 9.02956 57.2744 9.02956 50C9.02956 42.7257 8.44953 27.0836 11.0374 20.5233C12.7775 16.1497 16.1461 12.7803 20.541 11.0175C27.1221 8.40678 42.7384 9.00926 50.0112 9.00926C57.2839 9.00926 72.9225 8.4291 79.4813 11.0175C83.8539 12.758 87.2225 16.1274 88.9849 20.5233C91.5951 27.1059 90.9928 42.7257 90.9928 50C90.9928 57.2744 91.5951 72.9164 88.9849 79.4767Z" fill="white"/>
</svg>
