<svg width="259" height="430" fill="none" xmlns="http://www.w3.org/2000/svg"><mask id="a" style="mask-type:alpha" maskUnits="userSpaceOnUse" x="0" y="0" width="259" height="430"><path fill-rule="evenodd" clip-rule="evenodd" d="M130.074 3.796c-20.284 11.696-26.472 26.385-19.599 46.535 6.182 18.118 3.268 28.382-8.05 28.382-5.964 0-7.495-2.625-8.053-13.808-.538-10.824-.395-10.739-6.632-3.971-13.027 14.14-15.795 35.043-6.737 50.915 3.823 6.696 10.782 12.738 18.725 16.253 9.607 4.249 10.733 3.274 4.438-3.844-10.325-11.679-10.358-20.328-.108-30.746 5.328-5.415 5.823-4.884 5.682 6.082-.116 8.959.037 9.812 2.53 14.27 2.796 4.993 4.123 15.629 4.239 33.98l.046 7.095h-13.876v-21.894h-9.653c-15.394 0-15.186-.274-12.474 16.514 1.182 7.302.671 7.813-7.819 7.815H66.14l.609-22.949-9.552.578c-13.857.835-14.29 1.107-13.736 8.604.245 3.333.453 8.251.462 10.927l.016 4.865-13.413.477v-9.415c0-11.939-.351-12.553-7.201-12.547-5.407.006-15.804 1.241-16.646 1.979-.622.547 1.503 32.653 2.874 43.429l1.085 8.514 11.563-.235c6.36-.128 15.517-.6 20.35-1.046 10.71-.991 53.498-3.153 62.441-3.153 10.12-.002 8.677-4.983 12.449 42.953.508 6.467.934 14.349.945 17.516l.019 5.755-8.774.507c-14.882.856-30.279 11.596-19.435 13.555 13.885 2.505 24.243 11.788 28.681 25.702 2.261 7.089 1.591 7.77-12.9 13.106-7.55 2.78-15.335 6.445-21.886 10.309-13.117 7.736-12.655 7.876-16.542-5.03-5.162-17.13-1.277-29.783 16.377-53.354 16.223-21.66 21.829-38.15 17.583-51.723-1.133-3.62-15.191-6.033-30.982-5.315-18.572.845-31.604 8.496-20.436 11.999 2.366.742 6.755 2.857 9.754 4.702 7.535 4.632 19.426 4.494 27.52-.321 3.983-2.368 4.52-1.723 3.178 3.808-2.16 8.893-7.197 15.583-22.52 29.912-33.22 31.071-36.352 68.446-7.89 94.223 8.267 7.489 8.847 7.566 13.782 1.835 35.896-41.679 71.256-42.194 110.244-1.606 7.898 8.221 7.694 8.197 15.06 1.74 15.182-13.31 21.833-27.379 21.854-46.229.025-21.274-5.754-31.462-31.225-55.051-13.561-12.557-17.236-17.311-18.732-24.22-1.154-5.334-.289-6.188 4.008-3.964 8.288 4.286 20.448 3.739 27.561-1.242 2.234-1.565 5.726-3.242 7.761-3.729 6.427-1.536 7.586-3.428 3.932-6.424-6.855-5.622-24.514-7.888-41.396-5.314-12.409 1.892-13.311 2.782-13.734 13.533-.572 14.57 3.173 23.591 18.255 43.98 16.612 22.456 21.08 38.074 15.393 53.808-4.093 11.331-4.195 11.361-15.513 4.554-3.938-2.37-7.331-4.308-7.537-4.308-.208 0-4.477-1.673-9.488-3.718-10.423-4.252-11.492-4.667-16.41-6.388l-3.597-1.257.611-4.548c1.704-12.707 12.097-24.193 25.575-28.264 9.137-2.759 9.761-4.093 3.998-8.529-5.404-4.16-10.351-5.906-17.904-6.317-10.538-.574-10.476-.314-7.375-30.181.486-4.683 1.282-14.067 1.77-20.854 1.202-16.805-.028-15.641 16.507-15.619 13.647.017 50.986 1.642 74.003 3.22 17.287 1.186 15.839 2.674 17.738-18.24 2.25-24.771 2.821-33.967 2.143-34.537-1.221-1.03-11.371-2.36-18.001-2.36h-6.306v22.706h-14.801l.023-2.23c.012-1.227.407-3.69.879-5.474.474-1.784 1.135-6.019 1.473-9.41l.615-6.165-8.265-.931c-4.544-.511-9.944-.928-11.998-.928h-3.735l-.589 5.473c-.326 3.011-.595 8.128-.597 11.373-.007 6.506-.987 7.481-7.527 7.481-6.402 0-6.67-.563-5.944-12.545.75-12.399 1.485-11.418-9.192-12.265-8.499-.675-8.178-.213-5.275-7.627 3.131-7.993 3.538-24.435.786-31.626-1.751-4.57-2.188-5.47-9.993-20.5-7.361-14.18-8.383-16.873-8.996-23.695-.615-6.874-1.295-7.584-4.107-4.283-3.224 3.785-4.315 10.288-2.854 17.005.71 3.262 1.277 6.294 1.261 6.74-.063 1.742-4.103-3.56-7.412-9.73-11.549-21.533-12-32.52-2.045-49.813 2.422-4.205 4.54-7.945 4.709-8.312.791-1.71-3.673-.258-9.452 3.075Zm2.371 61.577c3.14 6.664 3.036 8.667-1.041 19.827-4.216 11.546-3.446 17.22 2.639 19.43 8.307 3.017 18.764-5.993 20.906-18.01.721-4.057 1.436-3.84 4.017 1.218 9.345 18.308 2.109 46.538-13.772 53.737-4.623 2.097-4.274.832 1.24-4.51 7.129-6.907 9.724-12.073 10.691-21.283.992-9.463 1.096-9.37-5.708-5.129-24.751 15.432-46.647.935-34.34-22.736 2.995-5.766 1.485-6.163-7.284-1.914-10.825 5.243-16.945 11.27-18.133 17.859-1.732 9.607-7.99 1.986-8.996-10.958-.932-11.949 3.71-20.668 7.863-14.777 1.063 1.508 3.364 3.418 5.113 4.243l3.177 1.5 5.969-2.574c9.577-4.134 21.019-13.419 21.019-17.056 0-6.335 3.393-5.755 6.64 1.133Zm21.752 53.034c-.571 4.227-4.796 13.016-6.258 13.016-1.084 0-1.091-2.814-.018-6.488a187.785 187.785 0 0 0 1.406-5.088c.539-2.107 3.499-5.454 4.821-5.454.324 0 .347 1.807.049 4.014Zm6.161 25.382c.321 2.342.587 5.991.592 8.109l.007 3.852h-5.611c-12.922 0-14.641-6.734-3.411-13.364 6.711-3.963 7.71-3.795 8.423 1.403ZM0 247.664c0 .28 1.265 2.309 2.812 4.513 8.534 12.155 10.714 31.731 5.518 49.539-1.822 6.254-2.713 21.027-1.815 30.166 2.657 27.095 16.734 41.037 55.937 55.4 27.61 10.116 40.898 18.631 49.39 31.648 9.084 13.922 9.84 14.106 9.026 2.194-1.156-16.922-6.277-24.756-22.194-33.968-5.27-3.051-24.62-11.647-26.216-11.647-.263 0-3.827-1.48-7.918-3.29-24.287-10.734-37.214-25.491-39.245-44.797-.541-5.137.065-10.538 3.33-29.674 4.494-26.32 2.79-35.607-8.061-43.96C15.363 249.787 0 245.211 0 247.664Zm80.372 97.547c-.717.757-1.404 3.862-1.596 7.205-.492 8.556.356 9.281 26.491 22.607 2.697 1.374 6.866 4.186 9.269 6.248 4.156 3.566 5.886 5.581 11.588 13.498 3.247 4.508 3.393 4.464 8.39-2.569 5.703-8.02 11.834-12.719 25.483-19.529 20.17-10.063 23.45-14.136 20.277-25.185-1.274-4.432-2.865-4.578-5.784-.527-7.359 10.22-12.877 11.789-26.227 7.456-14.343-4.652-21.207-4.845-35.048-.979-10.557 2.948-13.965 3.185-18.514 1.292-3.462-1.44-10.522-7.976-10.522-9.742 0-1.52-2.283-1.384-3.807.225Z" fill="#fff"/><path fill-rule="evenodd" clip-rule="evenodd" d="M258.406 247.69c0 .279-1.265 2.309-2.812 4.512-8.533 12.156-10.714 31.732-5.518 49.539 1.823 6.255 2.713 21.028 1.816 30.167-2.658 27.094-16.734 41.036-55.937 55.4-27.61 10.116-40.899 18.631-49.391 31.648-9.083 13.921-9.84 14.106-9.026 2.193 1.157-16.922 6.277-24.755 22.194-33.967 5.271-3.051 24.62-11.647 26.216-11.647.264 0 3.827-1.48 7.918-3.29 24.287-10.735 37.215-25.491 39.245-44.797.541-5.138-.065-10.538-3.33-29.674-4.493-26.32-2.789-35.607 8.062-43.96 5.201-4.002 20.563-8.577 20.563-6.124Z" fill="#fff"/></mask><g mask="url(#a)" fill-rule="evenodd" clip-rule="evenodd" fill="#fff"><path d="M130.074 3.796c-20.284 11.696-26.472 26.385-19.599 46.535 6.182 18.118 3.268 28.382-8.05 28.382-5.964 0-7.495-2.625-8.053-13.808-.538-10.824-.395-10.739-6.632-3.971-13.027 14.14-15.795 35.043-6.737 50.915 3.823 6.696 10.782 12.738 18.725 16.253 9.607 4.249 10.733 3.274 4.438-3.844-10.325-11.679-10.358-20.328-.108-30.746 5.328-5.415 5.823-4.884 5.682 6.082-.116 8.959.037 9.812 2.53 14.27 2.796 4.993 4.123 15.629 4.239 33.98l.046 7.095h-13.876v-21.894h-9.653c-15.394 0-15.186-.274-12.474 16.514 1.182 7.302.671 7.813-7.819 7.815H66.14l.609-22.949-9.552.578c-13.857.835-14.29 1.107-13.736 8.604.245 3.333.453 8.251.462 10.927l.016 4.865-13.413.477v-9.415c0-11.939-.351-12.553-7.201-12.547-5.407.006-15.804 1.241-16.646 1.979-.622.547 1.503 32.653 2.874 43.429l1.085 8.514 11.563-.235c6.36-.128 15.517-.6 20.35-1.046 10.71-.991 53.498-3.153 62.441-3.153 10.12-.002 8.677-4.983 12.449 42.953.508 6.467.934 14.349.945 17.516l.019 5.755-8.774.507c-14.882.856-30.279 11.596-19.435 13.555 13.885 2.505 24.243 11.788 28.681 25.702 2.261 7.089 1.591 7.77-12.9 13.106-7.55 2.78-15.335 6.445-21.886 10.309-13.117 7.736-12.655 7.876-16.542-5.03-5.162-17.13-1.277-29.783 16.377-53.354 16.223-21.66 21.829-38.15 17.583-51.723-1.133-3.62-15.191-6.033-30.982-5.315-18.572.845-31.604 8.496-20.436 11.999 2.366.742 6.755 2.857 9.754 4.702 7.535 4.632 19.426 4.494 27.52-.321 3.983-2.368 4.52-1.723 3.178 3.808-2.16 8.893-7.197 15.583-22.52 29.912-33.22 31.071-36.352 68.446-7.89 94.223 8.267 7.489 8.847 7.566 13.782 1.835 35.896-41.679 71.256-42.194 110.244-1.606 7.898 8.221 7.694 8.197 15.06 1.74 15.182-13.31 21.833-27.379 21.854-46.229.025-21.274-5.754-31.462-31.225-55.051-13.561-12.557-17.236-17.311-18.732-24.22-1.154-5.334-.289-6.188 4.008-3.964 8.288 4.286 20.448 3.739 27.561-1.242 2.234-1.565 5.726-3.242 7.761-3.729 6.427-1.536 7.586-3.428 3.932-6.424-6.855-5.622-24.514-7.888-41.396-5.314-12.409 1.892-13.311 2.782-13.734 13.533-.572 14.57 3.173 23.591 18.255 43.98 16.612 22.456 21.08 38.074 15.393 53.808-4.093 11.331-4.195 11.361-15.513 4.554-3.938-2.37-7.331-4.308-7.537-4.308-.208 0-4.477-1.673-9.488-3.718-10.423-4.252-11.492-4.667-16.41-6.388l-3.597-1.257.611-4.548c1.704-12.707 12.097-24.193 25.575-28.264 9.137-2.759 9.761-4.093 3.998-8.529-5.404-4.16-10.351-5.906-17.904-6.317-10.538-.574-10.476-.314-7.375-30.181.486-4.683 1.282-14.067 1.77-20.854 1.202-16.805-.028-15.641 16.507-15.619 13.647.017 50.986 1.642 74.003 3.22 17.287 1.186 15.839 2.674 17.738-18.24 2.25-24.771 2.821-33.967 2.143-34.537-1.221-1.03-11.371-2.36-18.001-2.36h-6.306v22.706h-14.801l.023-2.23c.012-1.227.407-3.69.879-5.474.474-1.784 1.135-6.019 1.473-9.41l.615-6.165-8.265-.931c-4.544-.511-9.944-.928-11.998-.928h-3.735l-.589 5.473c-.326 3.011-.595 8.128-.597 11.373-.007 6.506-.987 7.481-7.527 7.481-6.402 0-6.67-.563-5.944-12.545.75-12.399 1.485-11.418-9.192-12.265-8.499-.675-8.178-.213-5.275-7.627 3.131-7.993 3.538-24.435.786-31.626-1.751-4.57-2.188-5.47-9.993-20.5-7.361-14.18-8.383-16.873-8.996-23.695-.615-6.874-1.295-7.584-4.107-4.283-3.224 3.785-4.315 10.288-2.854 17.005.71 3.262 1.277 6.294 1.261 6.74-.063 1.742-4.103-3.56-7.412-9.73-11.549-21.533-12-32.52-2.045-49.813 2.422-4.205 4.54-7.945 4.709-8.312.791-1.71-3.673-.258-9.452 3.075Zm2.371 61.577c3.14 6.664 3.036 8.667-1.041 19.827-4.216 11.546-3.446 17.22 2.639 19.43 8.307 3.017 18.764-5.993 20.906-18.01.721-4.057 1.436-3.84 4.017 1.218 9.345 18.308 2.109 46.538-13.772 53.737-4.623 2.097-4.274.832 1.24-4.51 7.129-6.907 9.724-12.073 10.691-21.283.992-9.463 1.096-9.37-5.708-5.129-24.751 15.432-46.647.935-34.34-22.736 2.995-5.766 1.485-6.163-7.284-1.914-10.825 5.243-16.945 11.27-18.133 17.859-1.732 9.607-7.99 1.986-8.996-10.958-.932-11.949 3.71-20.668 7.863-14.777 1.063 1.508 3.364 3.418 5.113 4.243l3.177 1.5 5.969-2.574c9.577-4.134 21.019-13.419 21.019-17.056 0-6.335 3.393-5.755 6.64 1.133Zm21.752 53.034c-.571 4.227-4.796 13.016-6.258 13.016-1.084 0-1.091-2.814-.018-6.488a187.785 187.785 0 0 0 1.406-5.088c.539-2.107 3.499-5.454 4.821-5.454.324 0 .347 1.807.049 4.014Zm6.161 25.382c.321 2.342.587 5.991.592 8.109l.007 3.852h-5.611c-12.922 0-14.641-6.734-3.411-13.364 6.711-3.963 7.71-3.795 8.423 1.403ZM0 247.664c0 .28 1.265 2.309 2.812 4.513 8.534 12.155 10.714 31.731 5.518 49.539-1.822 6.254-2.713 21.027-1.815 30.166 2.657 27.095 16.734 41.037 55.937 55.4 27.61 10.116 40.898 18.631 49.39 31.648 9.084 13.922 9.84 14.106 9.026 2.194-1.156-16.922-6.277-24.756-22.194-33.968-5.27-3.051-24.62-11.647-26.216-11.647-.263 0-3.827-1.48-7.918-3.29-24.287-10.734-37.214-25.491-39.245-44.797-.541-5.137.065-10.538 3.33-29.674 4.494-26.32 2.79-35.607-8.061-43.96C15.363 249.787 0 245.211 0 247.664Zm80.372 97.547c-.717.757-1.404 3.862-1.596 7.205-.492 8.556.356 9.281 26.491 22.607 2.697 1.374 6.866 4.186 9.269 6.248 4.156 3.566 5.886 5.581 11.588 13.498 3.247 4.508 3.393 4.464 8.39-2.569 5.703-8.02 11.834-12.719 25.483-19.529 20.17-10.063 23.45-14.136 20.277-25.185-1.274-4.432-2.865-4.578-5.784-.527-7.359 10.22-12.877 11.789-26.227 7.456-14.343-4.652-21.207-4.845-35.048-.979-10.557 2.948-13.965 3.185-18.514 1.292-3.462-1.44-10.522-7.976-10.522-9.742 0-1.52-2.283-1.384-3.807.225Z"/><path d="M258.406 247.69c0 .279-1.265 2.309-2.812 4.512-8.533 12.156-10.714 31.732-5.518 49.539 1.823 6.255 2.713 21.028 1.816 30.167-2.658 27.094-16.734 41.036-55.937 55.4-27.61 10.116-40.899 18.631-49.391 31.648-9.083 13.921-9.84 14.106-9.026 2.193 1.157-16.922 6.277-24.755 22.194-33.967 5.271-3.051 24.62-11.647 26.216-11.647.264 0 3.827-1.48 7.918-3.29 24.287-10.735 37.215-25.491 39.245-44.797.541-5.138-.065-10.538-3.33-29.674-4.493-26.32-2.789-35.607 8.062-43.96 5.201-4.002 20.563-8.577 20.563-6.124Z"/></g></svg>