<svg width="285" height="401" viewBox="0 0 285 401" fill="none" xmlns="http://www.w3.org/2000/svg">
<path fill-rule="evenodd" clip-rule="evenodd" d="M143.461 3.53813C121.089 14.4389 114.264 28.1292 121.845 46.9091C128.663 63.7953 125.449 73.3614 112.966 73.3614C106.388 73.3614 104.7 70.9149 104.084 60.4922C103.491 50.4042 103.649 50.4834 96.7698 56.7912C82.4021 69.9698 79.3493 89.4516 89.3395 104.244C93.5559 110.485 101.231 116.116 109.992 119.392C120.587 123.352 121.829 122.444 114.886 115.81C103.499 104.925 103.462 96.8639 114.767 87.1542C120.644 82.1074 121.189 82.6023 121.034 92.8227C120.906 101.173 121.075 101.968 123.824 106.122C126.908 110.776 128.372 120.689 128.5 137.792L128.55 144.405H113.246V123.999H102.6C85.6215 123.999 85.8509 123.744 88.8421 139.39C90.1457 146.196 89.5821 146.672 80.2184 146.674H72.9468L73.6185 125.285L63.0835 125.824C47.8004 126.602 47.3228 126.856 47.9338 133.843C48.204 136.95 48.4334 141.533 48.4434 144.027L48.461 148.561L33.6676 149.006V140.231C33.6676 129.104 33.2805 128.532 25.7255 128.537C19.762 128.543 8.29503 129.694 7.36637 130.382C6.68036 130.891 9.02406 160.815 10.5362 170.858L11.7328 178.793L24.4858 178.574C31.5004 178.455 41.5998 178.015 46.9302 177.599C58.7424 176.675 105.934 174.66 115.797 174.66C126.959 174.659 125.367 170.016 129.528 214.693C130.088 220.72 130.558 228.066 130.57 231.018L130.591 236.382L120.914 236.854C104.5 237.652 87.5186 247.662 99.4786 249.488C114.793 251.822 126.217 260.474 131.111 273.442C133.605 280.049 132.866 280.684 116.884 285.657C108.557 288.248 99.9705 291.664 92.7453 295.265C78.2783 302.475 78.7879 302.606 74.5008 290.577C68.8076 274.612 73.0924 262.819 92.5633 240.851C110.456 220.663 116.639 205.295 111.956 192.644C110.706 189.271 95.2015 187.022 77.7853 187.691C57.302 188.478 42.9288 195.609 55.2461 198.874C57.8556 199.566 62.6963 201.537 66.004 203.256C74.3144 207.573 87.4292 207.445 96.3562 202.957C100.749 200.75 101.341 201.351 99.8613 206.506C97.479 214.795 91.9236 221.03 75.0236 234.384C38.3848 263.343 34.9304 298.177 66.3216 322.201C75.4394 329.181 76.0791 329.253 81.522 323.911C121.112 285.066 160.111 284.586 203.112 322.415C211.823 330.077 211.598 330.054 219.722 324.036C236.466 311.631 243.802 298.519 243.825 280.95C243.852 261.123 237.479 251.628 209.386 229.642C194.43 217.939 190.376 213.508 188.726 207.069C187.454 202.098 188.408 201.302 193.147 203.375C202.288 207.369 215.699 206.859 223.544 202.217C226.008 200.759 229.86 199.196 232.104 198.742C239.193 197.31 240.471 195.547 236.441 192.754C228.88 187.515 209.404 185.403 190.785 187.802C177.098 189.565 176.104 190.395 175.637 200.415C175.006 213.994 179.137 222.402 195.771 241.404C214.092 262.334 219.02 276.89 212.748 291.554C208.234 302.114 208.121 302.142 195.638 295.798C191.295 293.589 187.553 291.783 187.326 291.783C187.096 291.783 182.388 290.224 176.861 288.318C165.366 284.355 164.187 283.968 158.762 282.364L154.795 281.193L155.469 276.954C157.349 265.111 168.811 254.406 183.676 250.612C193.754 248.04 194.442 246.797 188.086 242.663C182.126 238.785 176.669 237.158 168.339 236.775C156.717 236.24 156.785 236.482 160.205 208.646C160.741 204.282 161.619 195.536 162.157 189.21C163.483 173.548 162.126 174.633 180.363 174.653C195.415 174.669 236.596 176.183 261.982 177.654C281.048 178.759 279.451 180.146 281.546 160.654C284.027 137.567 284.657 128.997 283.909 128.465C282.563 127.506 271.368 126.266 264.056 126.266H257.101V147.428H240.776L240.802 145.35C240.815 144.206 241.251 141.911 241.771 140.248C242.294 138.585 243.023 134.638 243.396 131.478L244.074 125.732L234.959 124.864C229.947 124.388 223.991 123.999 221.726 123.999H217.606L216.957 129.1C216.597 131.906 216.3 136.676 216.298 139.7C216.291 145.764 215.21 146.672 207.997 146.672C200.936 146.672 200.64 146.148 201.441 134.98C202.268 123.424 203.079 124.339 191.303 123.549C181.929 122.92 182.283 123.351 185.485 116.441C188.938 108.991 189.387 93.6671 186.352 86.965C184.421 82.7057 183.939 81.8669 175.33 67.8588C167.212 54.6429 166.085 52.133 165.409 45.7749C164.73 39.3683 163.98 38.7065 160.879 41.7831C157.323 45.3107 156.12 51.3716 157.731 57.6319C158.514 60.6721 159.14 63.498 159.122 63.9136C159.053 65.5372 154.597 60.5957 150.947 54.8452C138.21 34.7763 137.712 24.5363 148.692 8.41906C151.363 4.49996 153.699 1.01425 153.885 0.672202C154.758 -0.921532 149.834 0.431744 143.461 3.53813ZM146.076 60.9284C149.539 67.1393 149.424 69.0061 144.928 79.4073C140.278 90.1683 141.127 95.4565 147.838 97.5163C157 100.328 168.533 91.9307 170.896 80.7308C171.691 76.9496 172.479 77.1519 175.326 81.866C185.633 98.9292 177.652 125.24 160.137 131.949C155.038 133.904 155.423 132.725 161.504 127.746C169.367 121.309 172.229 116.494 173.296 107.91C174.39 99.0904 174.504 99.1771 167 103.13C139.702 117.513 115.552 104.001 129.126 81.9396C132.429 76.5656 130.764 76.1956 121.092 80.1557C109.153 85.0423 102.404 90.6595 101.093 96.8005C99.183 105.754 92.2809 98.6515 91.1714 86.5875C90.1435 75.451 95.2632 67.3248 99.8436 72.8152C101.016 74.2207 103.554 76.0009 105.483 76.7698L108.987 78.1678L115.57 75.7688C126.133 71.9159 138.752 63.2622 138.752 59.8724C138.752 53.9682 142.494 54.5087 146.076 60.9284ZM170.066 110.357C169.437 114.296 164.777 122.488 163.164 122.488C161.969 122.488 161.961 119.865 163.144 116.441C163.688 114.866 164.204 113.285 164.695 111.699C165.29 109.735 168.554 106.615 170.012 106.615C170.37 106.615 170.395 108.3 170.066 110.357ZM176.861 134.013C177.215 136.196 177.509 139.596 177.514 141.57L177.522 145.161H171.334C157.082 145.161 155.186 138.884 167.571 132.705C174.973 129.012 176.075 129.168 176.861 134.013ZM0 230.825C0 231.086 1.39519 232.977 3.1014 235.031C12.5137 246.36 14.918 264.605 9.18729 281.202C7.17777 287.031 6.19508 300.799 7.18549 309.317C10.1159 334.57 25.6417 347.564 68.8793 360.95C99.3308 370.379 113.986 378.315 123.352 390.446C133.371 403.422 134.205 403.593 133.307 392.491C132.032 376.72 126.384 369.419 108.829 360.833C103.017 357.989 81.6753 349.978 79.9151 349.978C79.625 349.978 75.6942 348.598 71.1822 346.911C44.3957 336.907 30.1383 323.154 27.8982 305.16C27.3016 300.373 27.9699 295.339 31.571 277.504C36.5275 252.973 34.6481 244.318 22.6804 236.533C16.9441 232.804 0 228.539 0 230.825ZM88.6435 321.74C87.8527 322.445 87.095 325.339 86.8833 328.455C86.3406 336.429 87.2759 337.105 116.101 349.525C119.075 350.805 123.673 353.426 126.324 355.348C130.907 358.672 132.815 360.55 139.104 367.928C142.685 372.13 142.846 372.089 148.358 365.534C154.648 358.059 161.409 353.68 176.463 347.333C198.709 337.954 202.327 334.158 198.827 323.86C197.422 319.729 195.667 319.593 192.448 323.369C184.331 332.894 178.245 334.356 163.522 330.318C147.702 325.982 140.132 325.802 124.867 329.406C113.223 332.153 109.464 332.374 104.447 330.61C100.629 329.268 92.8423 323.176 92.8423 321.53C92.8423 320.113 90.3244 320.24 88.6435 321.74Z" fill="white"/>
<path fill-rule="evenodd" clip-rule="evenodd" d="M285 230.849C285 231.109 283.605 233.001 281.899 235.054C272.487 246.384 270.082 264.629 275.813 281.225C277.823 287.055 278.805 300.823 277.816 309.341C274.884 334.593 259.359 347.587 216.122 360.974C185.67 370.403 171.014 378.339 161.648 390.47C151.63 403.445 150.795 403.617 151.693 392.514C152.969 376.743 158.616 369.443 176.171 360.857C181.984 358.013 203.325 350.002 205.085 350.002C205.376 350.002 209.306 348.622 213.818 346.935C240.604 336.93 254.863 323.178 257.102 305.184C257.698 300.396 257.03 295.363 253.429 277.528C248.474 252.997 250.353 244.342 262.321 236.557C268.057 232.827 285 228.563 285 230.849Z" fill="white"/>
<path fill-rule="evenodd" clip-rule="evenodd" d="M143.461 3.53813C121.089 14.4389 114.264 28.1292 121.845 46.9091C128.663 63.7953 125.449 73.3614 112.966 73.3614C106.388 73.3614 104.7 70.9149 104.084 60.4922C103.491 50.4042 103.649 50.4834 96.7698 56.7912C82.4021 69.9698 79.3493 89.4516 89.3395 104.244C93.5559 110.485 101.231 116.116 109.992 119.392C120.587 123.352 121.829 122.444 114.886 115.81C103.499 104.925 103.462 96.8639 114.767 87.1542C120.644 82.1074 121.189 82.6023 121.034 92.8227C120.906 101.173 121.075 101.968 123.824 106.122C126.908 110.776 128.372 120.689 128.5 137.792L128.55 144.405H113.246V123.999H102.6C85.6215 123.999 85.8509 123.744 88.8421 139.39C90.1457 146.196 89.5821 146.672 80.2184 146.674H72.9468L73.6185 125.285L63.0835 125.824C47.8004 126.602 47.3228 126.856 47.9338 133.843C48.204 136.95 48.4334 141.533 48.4434 144.027L48.461 148.561L33.6676 149.006V140.231C33.6676 129.104 33.2805 128.532 25.7255 128.537C19.762 128.543 8.29503 129.694 7.36637 130.382C6.68036 130.891 9.02406 160.815 10.5362 170.858L11.7328 178.793L24.4858 178.574C31.5004 178.455 41.5998 178.015 46.9302 177.599C58.7424 176.675 105.934 174.66 115.797 174.66C126.959 174.659 125.367 170.016 129.528 214.693C130.088 220.72 130.558 228.066 130.57 231.018L130.591 236.382L120.914 236.854C104.5 237.652 87.5186 247.662 99.4786 249.488C114.793 251.822 126.217 260.474 131.111 273.442C133.605 280.049 132.866 280.684 116.884 285.657C108.557 288.248 99.9705 291.664 92.7453 295.265C78.2783 302.475 78.7879 302.606 74.5008 290.577C68.8076 274.612 73.0924 262.819 92.5633 240.851C110.456 220.663 116.639 205.295 111.956 192.644C110.706 189.271 95.2015 187.022 77.7853 187.691C57.302 188.478 42.9288 195.609 55.2461 198.874C57.8556 199.566 62.6963 201.537 66.004 203.256C74.3144 207.573 87.4292 207.445 96.3562 202.957C100.749 200.75 101.341 201.351 99.8613 206.506C97.479 214.795 91.9236 221.03 75.0236 234.384C38.3848 263.343 34.9304 298.177 66.3216 322.201C75.4394 329.181 76.0791 329.253 81.522 323.911C121.112 285.066 160.111 284.586 203.112 322.415C211.823 330.077 211.598 330.054 219.722 324.036C236.466 311.631 243.802 298.519 243.825 280.95C243.852 261.123 237.479 251.628 209.386 229.642C194.43 217.939 190.376 213.508 188.726 207.069C187.454 202.098 188.408 201.302 193.147 203.375C202.288 207.369 215.699 206.859 223.544 202.217C226.008 200.759 229.86 199.196 232.104 198.742C239.193 197.31 240.471 195.547 236.441 192.754C228.88 187.515 209.404 185.403 190.785 187.802C177.098 189.565 176.104 190.395 175.637 200.415C175.006 213.994 179.137 222.402 195.771 241.404C214.092 262.334 219.02 276.89 212.748 291.554C208.234 302.114 208.121 302.142 195.638 295.798C191.295 293.589 187.553 291.783 187.326 291.783C187.096 291.783 182.388 290.224 176.861 288.318C165.366 284.355 164.187 283.968 158.762 282.364L154.795 281.193L155.469 276.954C157.349 265.111 168.811 254.406 183.676 250.612C193.754 248.04 194.442 246.797 188.086 242.663C182.126 238.785 176.669 237.158 168.339 236.775C156.717 236.24 156.785 236.482 160.205 208.646C160.741 204.282 161.619 195.536 162.157 189.21C163.483 173.548 162.126 174.633 180.363 174.653C195.415 174.669 236.596 176.183 261.982 177.654C281.048 178.759 279.451 180.146 281.546 160.654C284.027 137.567 284.657 128.997 283.909 128.465C282.563 127.506 271.368 126.266 264.056 126.266H257.101V147.428H240.776L240.802 145.35C240.815 144.206 241.251 141.911 241.771 140.248C242.294 138.585 243.023 134.638 243.396 131.478L244.074 125.732L234.959 124.864C229.947 124.388 223.991 123.999 221.726 123.999H217.606L216.957 129.1C216.597 131.906 216.3 136.676 216.298 139.7C216.291 145.764 215.21 146.672 207.997 146.672C200.936 146.672 200.64 146.148 201.441 134.98C202.268 123.424 203.079 124.339 191.303 123.549C181.929 122.92 182.283 123.351 185.485 116.441C188.938 108.991 189.387 93.6671 186.352 86.965C184.421 82.7057 183.939 81.8669 175.33 67.8588C167.212 54.6429 166.085 52.133 165.409 45.7749C164.73 39.3683 163.98 38.7065 160.879 41.7831C157.323 45.3107 156.12 51.3716 157.731 57.6319C158.514 60.6721 159.14 63.498 159.122 63.9136C159.053 65.5372 154.597 60.5957 150.947 54.8452C138.21 34.7763 137.712 24.5363 148.692 8.41906C151.363 4.49996 153.699 1.01425 153.885 0.672202C154.758 -0.921532 149.834 0.431744 143.461 3.53813ZM146.076 60.9284C149.539 67.1393 149.424 69.0061 144.928 79.4073C140.278 90.1683 141.127 95.4565 147.838 97.5163C157 100.328 168.533 91.9307 170.896 80.7308C171.691 76.9496 172.479 77.1519 175.326 81.866C185.633 98.9292 177.652 125.24 160.137 131.949C155.038 133.904 155.423 132.725 161.504 127.746C169.367 121.309 172.229 116.494 173.296 107.91C174.39 99.0904 174.504 99.1771 167 103.13C139.702 117.513 115.552 104.001 129.126 81.9396C132.429 76.5656 130.764 76.1956 121.092 80.1557C109.153 85.0423 102.404 90.6595 101.093 96.8005C99.183 105.754 92.2809 98.6515 91.1714 86.5875C90.1435 75.451 95.2632 67.3248 99.8436 72.8152C101.016 74.2207 103.554 76.0009 105.483 76.7698L108.987 78.1678L115.57 75.7688C126.133 71.9159 138.752 63.2622 138.752 59.8724C138.752 53.9682 142.494 54.5087 146.076 60.9284ZM170.066 110.357C169.437 114.296 164.777 122.488 163.164 122.488C161.969 122.488 161.961 119.865 163.144 116.441C163.688 114.866 164.204 113.285 164.695 111.699C165.29 109.735 168.554 106.615 170.012 106.615C170.37 106.615 170.395 108.3 170.066 110.357ZM176.861 134.013C177.215 136.196 177.509 139.596 177.514 141.57L177.522 145.161H171.334C157.082 145.161 155.186 138.884 167.571 132.705C174.973 129.012 176.075 129.168 176.861 134.013ZM0 230.825C0 231.086 1.39519 232.977 3.1014 235.031C12.5137 246.36 14.918 264.605 9.18729 281.202C7.17777 287.031 6.19508 300.799 7.18549 309.317C10.1159 334.57 25.6417 347.564 68.8793 360.95C99.3308 370.379 113.986 378.315 123.352 390.446C133.371 403.422 134.205 403.593 133.307 392.491C132.032 376.72 126.384 369.419 108.829 360.833C103.017 357.989 81.6753 349.978 79.9151 349.978C79.625 349.978 75.6942 348.598 71.1822 346.911C44.3957 336.907 30.1383 323.154 27.8982 305.16C27.3016 300.373 27.9699 295.339 31.571 277.504C36.5275 252.973 34.6481 244.318 22.6804 236.533C16.9441 232.804 0 228.539 0 230.825ZM88.6435 321.74C87.8527 322.445 87.095 325.339 86.8833 328.455C86.3406 336.429 87.2759 337.105 116.101 349.525C119.075 350.805 123.673 353.426 126.324 355.348C130.907 358.672 132.815 360.55 139.104 367.928C142.685 372.13 142.846 372.089 148.358 365.534C154.648 358.059 161.409 353.68 176.463 347.333C198.709 337.954 202.327 334.158 198.827 323.86C197.422 319.729 195.667 319.593 192.448 323.369C184.331 332.894 178.245 334.356 163.522 330.318C147.702 325.982 140.132 325.802 124.867 329.406C113.223 332.153 109.464 332.374 104.447 330.61C100.629 329.268 92.8423 323.176 92.8423 321.53C92.8423 320.113 90.3244 320.24 88.6435 321.74Z" fill="white"/>
<path fill-rule="evenodd" clip-rule="evenodd" d="M285 230.849C285 231.109 283.605 233.001 281.899 235.054C272.487 246.384 270.082 264.629 275.813 281.225C277.823 287.055 278.805 300.823 277.816 309.341C274.884 334.593 259.359 347.587 216.122 360.974C185.67 370.403 171.014 378.339 161.648 390.47C151.63 403.445 150.795 403.617 151.693 392.514C152.969 376.743 158.616 369.443 176.171 360.857C181.984 358.013 203.325 350.002 205.085 350.002C205.376 350.002 209.306 348.622 213.818 346.935C240.604 336.93 254.863 323.178 257.102 305.184C257.698 300.396 257.03 295.363 253.429 277.528C248.474 252.997 250.353 244.342 262.321 236.557C268.057 232.827 285 228.563 285 230.849Z" fill="white"/>
</svg>
