<svg width="354" height="260" viewBox="0 0 354 260" fill="none" xmlns="http://www.w3.org/2000/svg">
<path fill-rule="evenodd" clip-rule="evenodd" d="M24.7939 17.5918C29.9531 86.2485 85.3721 142.884 156.919 152.617C170.888 154.518 170.743 154.716 170.743 133.744C170.743 113.574 170.949 113.992 160.346 112.73C111.791 106.95 70.5847 64.7787 65.7306 15.9016L65.2435 11H71.1631H77.0827L77.4944 14.2106C83.2587 59.1597 115.513 93.1337 159.818 100.925C170.367 102.78 170.743 102.115 170.743 81.5615C170.743 62.0094 171.014 62.6836 162.225 60.3963C140.118 54.6457 121.452 34.7882 118.975 14.3855L118.563 11H124.477H130.39L131.515 15.8592C135.731 34.0691 159.741 54.3896 168.524 47.1816L170.743 45.36V28.18V11H176.981H183.219V28.18V45.36L185.438 47.1816C194.221 54.3896 218.231 34.0691 222.447 15.8592L223.572 11H229.486H235.399L234.987 14.3855C232.51 34.7882 213.845 54.6457 191.738 60.3963C182.949 62.6836 183.219 62.0094 183.219 81.5615C183.219 102.115 183.596 102.78 194.145 100.925C238.449 93.1337 270.704 59.1597 276.468 14.2106L276.88 11H282.799H288.719L288.232 15.9016C283.377 64.7891 242.181 106.949 193.617 112.73C183.014 113.992 183.219 113.574 183.219 133.744C183.219 154.716 183.075 154.518 197.043 152.617C268.59 142.884 324.009 86.2485 329.169 17.5918L329.664 11H335.813H341.962L341.57 14.8874C338.753 42.7863 332.485 63.5931 321.016 83.1123C294.112 128.9 250.102 157.625 196.396 164.452C187.217 165.618 186.218 165.881 184.786 167.505L183.219 169.281V199.576V229.87L184.942 231.551C186.523 233.093 187.365 233.27 195.145 233.699C215.664 234.83 232.193 239.151 243.367 246.307L247.024 248.647L212.003 248.822C192.741 248.919 161.221 248.919 141.96 248.822L106.939 248.647L110.595 246.307C121.77 239.151 138.298 234.83 158.818 233.699C166.597 233.27 167.439 233.093 169.02 231.551L170.743 229.87V199.576V169.281L169.176 167.505C167.744 165.881 166.745 165.618 157.566 164.452C103.86 157.625 59.8501 128.9 32.9466 83.1123C21.4774 63.5931 15.2091 42.7863 12.3922 14.8874L12 11H18.1494H24.2988L24.7939 17.5918Z" fill="#FFCF52" stroke="#FFCF52" stroke-width="21"/>
</svg>
