<svg width="100" height="71" viewBox="0 0 100 71" fill="none" xmlns="http://www.w3.org/2000/svg">
<path d="M97.9129 11.0033C96.7594 6.66423 93.3724 3.25888 89.0699 2.10546C81.2706 0 50 0 50 0C50 0 18.7294 0 10.9301 2.10546C6.62761 3.25888 3.24057 6.66423 2.08715 11.0033C0 18.8576 0 35.2252 0 35.2252C0 35.2252 0 51.5928 2.08715 59.4471C3.24057 63.7862 6.62761 67.045 10.9301 68.1985C18.7294 70.3039 50 70.3039 50 70.3039C50 70.3039 81.2706 70.3039 89.0699 68.1985C93.3724 67.045 96.7594 63.7679 97.9129 59.4471C100 51.5928 100 35.2252 100 35.2252C100 35.2252 100 18.8576 97.9129 11.0033ZM39.784 50.0915V20.3588L65.9099 35.2252L39.784 50.0915Z" fill="white"/>
</svg>
